<?xml version="1.0" encoding="utf-8"?>
<!-- Generator: Adobe Illustrator 26.0.1, SVG Export Plug-In . SVG Version: 6.00 Build 0)  -->
<svg version="1.1" id="logo" xmlns="http://www.w3.org/2000/svg" xmlns:xlink="http://www.w3.org/1999/xlink" x="0px" y="0px"
	 viewBox="0 0 965.1 386.1" style="enable-background:new 0 0 965.1 386.1;" xml:space="preserve">
<style type="text/css">
	.st0{fill:#D31116;}
	.st1{fill-rule:evenodd;clip-rule:evenodd;fill:#D31116;}
	.st2{fill:#FFFFFF;}
	.st3{fill-rule:evenodd;clip-rule:evenodd;fill:#FFFFFF;}
</style>
<path class="st0" d="M81.6,277.3c62.7,60.2,186.5,91.3,298.9,89.7c90-1.3,173.4-13.3,234.8-44.1c-70,42.6-174,67-286.7,62.7
	c-131.1-5-240.4-47.8-293.2-108.2H81.6z M2.3,177.3C15.8,71.6,179.8-6.9,373.6,0.5C486.3,4.8,587,36.4,645.4,83.9
	c-52.9-35.2-143.5-62.7-232.2-71.1C237-4.1,63.6,64.5,43.1,158.5c-3.8,17.3-3.8,33.6-0.5,48.9H2.7C1.1,197.5,0.9,187.5,2.3,177.3z"
	/>
<path class="st0" d="M946,70.3c3.2,0,6.4,0.8,9.4,2.5c3.1,1.6,5.5,4,7.2,7.1c1.7,3.1,2.6,6.3,2.6,9.6c0,3.3-0.8,6.5-2.5,9.5
	c-1.7,3.1-4,5.4-7.1,7.1c-3,1.7-6.2,2.5-9.5,2.5c-3.3,0-6.5-0.8-9.5-2.5c-3-1.7-5.4-4-7.1-7.1c-1.7-3-2.5-6.2-2.5-9.5
	c0-3.3,0.9-6.5,2.6-9.6c1.7-3.1,4.1-5.4,7.2-7.1C939.6,71.1,942.8,70.3,946,70.3z M946,73.5c-2.7,0-5.3,0.7-7.9,2.1
	c-2.6,1.4-4.5,3.4-6,5.9c-1.4,2.6-2.2,5.2-2.2,8c0,2.8,0.7,5.4,2.1,7.9c1.4,2.5,3.4,4.5,5.9,5.9c2.5,1.4,5.2,2.1,8,2.1
	c2.7,0,5.4-0.7,7.9-2.1c2.5-1.4,4.5-3.4,5.9-5.9c1.4-2.5,2.1-5.2,2.1-7.9c0-2.8-0.7-5.4-2.1-8c-1.4-2.6-3.4-4.5-6-5.9
	C951.3,74.2,948.7,73.5,946,73.5z M937.6,100.1V79.4h7.1c2.4,0,4.2,0.2,5.3,0.6c1.1,0.4,1.9,1,2.6,2c0.6,0.9,1,2,1,3
	c0,1.5-0.5,2.8-1.6,3.9c-1.1,1.1-2.5,1.7-4.3,1.9c0.7,0.3,1.3,0.7,1.7,1.1c0.8,0.8,1.8,2.2,3,4.1l2.5,4h-4.1l-1.8-3.2
	c-1.4-2.6-2.6-4.2-3.5-4.8c-0.6-0.5-1.5-0.7-2.7-0.7h-1.9v8.8H937.6z M940.9,88.5h4c1.9,0,3.2-0.3,3.9-0.9c0.7-0.6,1.1-1.3,1.1-2.3
	c0-0.6-0.2-1.2-0.5-1.6c-0.3-0.5-0.8-0.8-1.4-1.1c-0.6-0.2-1.7-0.3-3.3-0.3h-3.8V88.5z"/>
<g>
	<path class="st0" d="M672.1,335.4v-7.1l25.8,0v22.6c-4,3.2-8,5.5-12.3,7.1c-4.2,1.6-8.5,2.4-13,2.4c-6,0-11.4-1.3-16.3-3.8
		c-4.9-2.6-8.6-6.3-11.1-11.1c-2.5-4.8-3.7-10.3-3.7-16.3c0-5.9,1.2-11.5,3.7-16.6c2.5-5.1,6-9,10.7-11.5c4.7-2.5,10-3.7,16.1-3.7
		c4.4,0,8.4,0.7,11.9,2.1c3.6,1.4,6.4,3.4,8.4,6c2,2.5,3.6,5.9,4.6,10l-7.3,2c-0.9-3.1-2-5.5-3.4-7.3c-1.4-1.8-3.3-3.2-5.8-4.3
		c-2.5-1.1-5.3-1.6-8.4-1.6c-3.7,0-6.9,0.6-9.6,1.7c-2.7,1.1-4.9,2.6-6.5,4.4c-1.6,1.8-2.9,3.8-3.8,6c-1.6,3.8-2.3,7.9-2.3,12.3
		c0,5.4,0.9,10,2.8,13.6c1.9,3.7,4.6,6.4,8.2,8.1c3.6,1.8,7.4,2.7,11.4,2.7c3.5,0,6.9-0.7,10.2-2s5.8-2.8,7.6-4.3v-11.3H672.1z"/>
	<path class="st0" d="M721.5,359.3v-44.1h6.7v6.7c1.7-3.1,3.3-5.2,4.8-6.2c1.5-1,3.1-1.5,4.8-1.5c2.5,0,5.1,0.8,7.7,2.4l-2.6,6.9
		c-1.8-1.1-3.7-1.6-5.5-1.6c-1.6,0-3.1,0.5-4.4,1.5c-1.3,1-2.2,2.3-2.8,4.1c-0.8,2.7-1.2,5.6-1.2,8.7v23.1H721.5z"/>
	<path class="st0" d="M759.9,337.3c0-8.2,2.3-14.2,6.8-18.2c3.8-3.3,8.4-4.9,13.9-4.9c6.1,0,11,2,14.9,6c3.9,4,5.8,9.5,5.8,16.5
		c0,5.7-0.9,10.1-2.6,13.4c-1.7,3.3-4.2,5.8-7.4,7.6c-3.3,1.8-6.8,2.7-10.7,2.7c-6.2,0-11.2-2-15-5.9
		C761.8,350.4,759.9,344.7,759.9,337.3z M767.6,337.3c0,5.7,1.2,9.9,3.7,12.7c2.5,2.8,5.6,4.2,9.3,4.2c3.7,0,6.8-1.4,9.3-4.2
		c2.5-2.8,3.7-7.1,3.7-12.9c0-5.5-1.2-9.6-3.7-12.4c-2.5-2.8-5.6-4.2-9.2-4.2c-3.7,0-6.8,1.4-9.3,4.2
		C768.8,327.4,767.6,331.6,767.6,337.3z"/>
	<path class="st0" d="M851.7,359.3v-6.5c-3.4,5-8.1,7.5-14,7.5c-2.6,0-5-0.5-7.3-1.5c-2.3-1-3.9-2.3-5-3.8c-1.1-1.5-1.9-3.4-2.3-5.5
		c-0.3-1.5-0.5-3.8-0.5-7v-27.3h7.5v24.5c0,3.9,0.2,6.5,0.5,7.9c0.5,2,1.5,3.5,3,4.6c1.5,1.1,3.4,1.7,5.7,1.7c2.2,0,4.4-0.6,6.3-1.7
		c2-1.1,3.4-2.7,4.2-4.7c0.8-2,1.2-4.9,1.2-8.6v-23.6h7.5v44.1H851.7z"/>
	<path class="st0" d="M882.9,376.2v-61.1h6.8v5.7c1.6-2.2,3.4-3.9,5.4-5c2-1.1,4.5-1.7,7.4-1.7c3.8,0,7.1,1,10,2.9
		c2.9,1.9,5.1,4.7,6.5,8.2c1.5,3.5,2.2,7.4,2.2,11.6c0,4.5-0.8,8.6-2.4,12.2c-1.6,3.6-4,6.4-7.1,8.3c-3.1,1.9-6.3,2.9-9.7,2.9
		c-2.5,0-4.7-0.5-6.7-1.6c-2-1.1-3.6-2.4-4.9-4v21.5H882.9z M889.7,337.5c0,5.7,1.2,9.9,3.4,12.6c2.3,2.7,5.1,4.1,8.4,4.1
		c3.3,0,6.2-1.4,8.5-4.2c2.4-2.8,3.6-7.2,3.6-13.1c0-5.6-1.2-9.8-3.5-12.6c-2.3-2.8-5.1-4.2-8.3-4.2c-3.2,0-6,1.5-8.5,4.5
		C890.9,327.5,889.7,331.8,889.7,337.5z"/>
</g>
<path class="st1" d="M141.7,119.6c0-3.5,2.5-6.3,5.5-6.3h130.6c3,0,5.5,2.8,5.5,6.3v27.9c0,3.5-2.5,6.3-5.5,6.3H147.2
	c-3,0-5.5-2.8-5.5-6.3V119.6z"/>
<path class="st1" d="M0,227.6c0-3.5,2.5-6.3,5.5-6.3h130.6c3,0,5.5,2.8,5.5,6.3v27.9c0,3.5-2.5,6.3-5.5,6.3H5.5
	c-3,0-5.5-2.8-5.5-6.3V227.6z"/>
<path class="st1" d="M70.5,173.6c0-3.5,2.5-6.3,5.5-6.3h130.6c3,0,5.5,2.8,5.5,6.3v27.9c0,3.5-2.5,6.3-5.5,6.3H76
	c-3,0-5.5-2.8-5.5-6.3V173.6z"/>
<path class="st1" d="M303.8,130.9c0-20,16.2-36.1,36.1-36.1h563.5c20,0,36.1,16.2,36.1,36.1v112.7c0,19.9-16.2,36.1-36.1,36.1H340
	c-20,0-36.1-16.2-36.1-36.1V130.9z"/>
<path class="st2" d="M682.2,250c-0.4,0-0.9,0-1.3,0h0.5C681.7,250,682,250,682.2,250z M729.6,250h0.5c-0.5,0-0.9,0-1.3,0
	C729,250,729.3,250,729.6,250z M761.7,243.5c-1.2,4.8-5.5,6.6-10.4,6.6h-0.6h-20.6h-0.5c-0.3,0-0.5,0-0.8,0c-4-0.2-6.1-1.3-7.1-5.7
	l-16.2-62.6l-16.2,62.6c-1,4.4-3,5.5-7.1,5.7c-0.2,0-0.5,0-0.8,0h-0.5h-20.6h-0.6c-4.9,0-9.2-1.8-10.4-6.6l-28.5-113.1
	c-1.1-4.8,0.6-6.3,4.3-6.3h20.6c4.9,0,7.3,0.9,8.4,5.7l15.5,58.4l14.9-57.5c1.1-4.2,4.5-6.1,8.7-6.5c0.3,0,0.8-0.1,1.2-0.1h0.5h21.3
	h0.5c0.5,0,0.9,0,1.2,0.1c4.2,0.4,7.6,2.3,8.7,6.5l14.9,57.5l15.5-58.4c1.1-4.8,3.5-5.7,8.4-5.7H786c3.7,0,5.4,1.4,4.3,6.3
	L761.7,243.5z"/>
<path class="st2" d="M869.1,124.1c0.3,0,0.6,0,0.9,0c-0.2,0-0.4,0-0.5,0H869.1z M868.7,219.7h-46.7l-6,25c-1.1,4.9-3.4,5.7-8.2,5.7
	h-20.3c-3.6,0-6.1-1.4-5-6.3l28.8-113.4c1.2-4.8,5.4-6.6,10.3-6.6h3.7h17.8h4.8h21.4h0.3c0.2,0,0.4,0,0.5,0c4.5,0.2,8.2,2,9.4,6.6
	l28.8,113.4c1.1,4.9-1.4,6.3-5,6.3h-20.3c-4.8,0-7.2-0.9-8.3-5.7L868.7,219.7z M829.6,189.6H861l-9-33.8c-3.1-4.2-10.4-4.2-13.5,0
	L829.6,189.6z"/>
<path class="st3" d="M574.8,132.9c0-4.8,3.9-8.8,8.8-8.8h18.4c4.8,0,8.8,3.9,8.8,8.8v108.3c0,4.8-3.9,8.8-8.8,8.8h-18.4
	c-4.8,0-8.8-3.9-8.8-8.8V132.9z"/>
<path class="st2" d="M348,249.5c-4.1,0-7.5-3.3-7.5-7.5v-14.5c0-4.1,3.3-7.4,7.5-7.4h64.7c3.8,0,5.1-1.9,5.1-5.9v-8.7
	c0-3.5-1.4-5.1-5.1-5.1l-49,0.1c-14.7,0-22.5-11.5-22.5-20.6v-35.7c0-8.7,7.8-20,22.5-20h81.6c4.1,0,7.4,3.3,7.4,7.5v14.5
	c0,4.1-3.3,7.5-7.4,7.5h-65.4c-3.8,0-5.1,1.9-5.1,5.8v8.7c0,3.5,1.4,5.1,5.1,5.1l51.2-0.1c14.7,0,22.5,11.5,22.5,20.6v35.7
	c0,8.7-7.8,20-22.5,20H348z"/>
<path class="st2" d="M530.8,154v86.8c0,4.9-3.9,8.9-8.7,8.9h-17.7c-4.8,0-8.7-4-8.7-8.9V154h-26c-4.1,0-7.4-3.4-7.4-7.5v-14.8
	c0-4.2,3.3-7.5,7.4-7.5h87c4.1,0,7.4,3.4,7.4,7.5v14.8c0,4.2-3.3,7.5-7.4,7.5H530.8z"/>
</svg>
